<?xml version="1.0" encoding="UTF-8" standalone="no"?>
<!-- Created with Inkscape (http://www.inkscape.org/) -->
<svg
   xmlns:dc="http://purl.org/dc/elements/1.1/"
   xmlns:cc="http://web.resource.org/cc/"
   xmlns:rdf="http://www.w3.org/1999/02/22-rdf-syntax-ns#"
   xmlns:svg="http://www.w3.org/2000/svg"
   xmlns="http://www.w3.org/2000/svg"
   xmlns:sodipodi="http://inkscape.sourceforge.net/DTD/sodipodi-0.dtd"
   xmlns:inkscape="http://www.inkscape.org/namespaces/inkscape"
   width="744.09448819"
   height="1052.3622047"
   id="svg2"
   sodipodi:version="0.32"
   inkscape:version="0.43"
   sodipodi:docbase="/home/rouslan"
   sodipodi:docname="tool.svg">
  <defs
     id="defs4" />
  <sodipodi:namedview
     id="base"
     pagecolor="#ffffff"
     bordercolor="#666666"
     borderopacity="1.0"
     inkscape:pageopacity="0.0"
     inkscape:pageshadow="2"
     inkscape:zoom="1"
     inkscape:cx="372.04724"
     inkscape:cy="520"
     inkscape:document-units="px"
     inkscape:current-layer="layer1"
     inkscape:window-width="874"
     inkscape:window-height="590"
     inkscape:window-x="409"
     inkscape:window-y="227" />
  <metadata
     id="metadata7">
    <rdf:RDF>
      <cc:Work
         rdf:about="">
        <dc:format>image/svg+xml</dc:format>
        <dc:type
           rdf:resource="http://purl.org/dc/dcmitype/StillImage" />
      </cc:Work>
    </rdf:RDF>
  </metadata>
  <g
     inkscape:label="Layer 1"
     inkscape:groupmode="layer"
     id="layer1">
    <path
       style="fill:#000000;fill-opacity:1;fill-rule:nonzero;stroke:none;stroke-width:1px;stroke-linecap:butt;stroke-linejoin:miter;stroke-opacity:1"
       id="path1309"
       d="M 233.93784,518.86154 C 290.04169,561.29244 339.55051,612.69261 393.02376,658.80754 L 383.69081,664.54949 C 336.81175,613.7038 284.66903,558.75558 224.3014,525.86282 L 233.93784,518.86154 z " />
    <path
       style="fill:#000000;fill-opacity:1;fill-rule:nonzero;stroke:none;stroke-width:1px;stroke-linecap:butt;stroke-linejoin:miter;stroke-opacity:1"
       id="path1319"
       d="M 392.8003,645.50638 C 356.94559,622.39321 327.04038,591.75347 299.57444,559.38613 C 293.97212,552.60018 288.65795,545.57656 283.5659,538.40137 L 293.02161,532.87648 C 297.4528,540.38177 302.21476,547.70095 307.53398,554.61356 C 333.93655,587.66561 364.99801,619.03982 402.72123,638.97875 L 392.8003,645.50638 z " />
    <path
       style="fill:#000000;fill-opacity:1;fill-rule:nonzero;stroke:none;stroke-width:1px;stroke-linecap:butt;stroke-linejoin:miter;stroke-opacity:1"
       id="path1321"
       d="M 400.93784,635.86154 C 406.7062,636.76927 410.28655,639.12769 411.71575,644.91977 C 412.84757,650.70963 411.95025,655.08634 407.98633,659.22937 C 398.58314,667.34147 394.4713,667.70897 384.48186,666.6849 C 382.87976,665.92617 381.40322,666.60902 379.91507,666.72142 L 389.18686,659.60618 C 390.77511,659.68588 392.40618,659.47727 393.98407,659.97418 C 406.1347,660.99424 403.42012,659.85407 397.11262,663.52035 C 401.26698,659.87628 402.57167,656.10959 401.51634,650.35715 C 399.89806,645.17351 396.90229,643.01429 391.3014,642.86282 L 400.93784,635.86154 z " />
    <path
       style="fill:#000000;fill-opacity:1;fill-rule:nonzero;stroke:none;stroke-width:1px;stroke-linecap:butt;stroke-linejoin:miter;stroke-opacity:1"
       id="path1323"
       d="M 224.69348,524.94637 C 225.38423,517.22247 233.48339,512.73018 238.90761,508.10256 C 254.42529,497.71912 270.79695,478.15047 290.77989,478.31273 C 301.85544,480.24649 316.61325,483.41902 315.42761,497.13011 C 312.25656,504.96774 306.07905,510.95149 301.39914,517.88634 C 299.43001,520.8565 298.18156,524.20956 296.91659,527.51297 L 286.37729,532.50281 C 287.59601,529.10293 288.89547,525.70216 290.72775,522.5693 C 295.38334,515.60669 301.51764,509.67721 305.10811,502.06361 C 306.96313,489.22061 291.60163,486.25814 281.61163,484.91634 C 270.65529,485.53069 272.72694,485.64471 248.96125,504.02498 C 243.96623,508.37904 236.55405,512.75809 235.30652,519.53876 L 224.69348,524.94637 z " />
    <path
       style="fill:#000000;fill-opacity:1;fill-rule:nonzero;stroke:none;stroke-width:1px;stroke-linecap:butt;stroke-linejoin:miter;stroke-opacity:1"
       id="path1325"
       d="M 213.93784,493.86154 C 208.63871,497.89188 206.84966,498.58939 216.70103,487.0288 L 226.92737,482.69665 C 220.00807,490.83062 216.36251,498.265 204.3014,500.86282 L 213.93784,493.86154 z " />
    <path
       style="fill:#000000;fill-opacity:1;fill-rule:nonzero;stroke:none;stroke-width:1px;stroke-linecap:butt;stroke-linejoin:miter;stroke-opacity:1"
       id="path1327"
       d="M 234.30652,477.77799 C 237.44707,481.03844 241.50387,483.52259 245.09325,486.34353 C 245.74844,486.94041 246.3553,487.58639 246.98632,488.20781 L 237.07789,494.28244 C 237.06774,494.27263 235.26397,492.47658 235.21258,492.48039 C 231.30117,489.52423 226.87506,486.9288 223.69348,483.18561 L 234.30652,477.77799 z " />
    <path
       style="fill:#000000;fill-opacity:1;fill-rule:nonzero;stroke:none;stroke-width:1px;stroke-linecap:butt;stroke-linejoin:miter;stroke-opacity:1"
       id="path1329"
       d="M 201.69348,500.94637 C 200.082,488.12659 196.55957,473.75821 203.18641,461.84373 C 214.04584,445.53158 231.02866,442.72759 247.71939,449.91529 C 253.52048,453.20827 259.75235,455.36082 263.00996,461.42524 C 264.69161,466.66857 265.82246,472.11126 268.13673,477.06523 C 268.99205,478.2106 270.33682,478.79663 271.5037,479.57776 L 261.62646,485.9347 C 260.34135,485.08031 258.92011,484.39368 258.03046,483.07476 C 255.72405,478.00184 254.63938,472.49242 252.82485,467.18403 C 249.49112,461.63467 243.78831,459.31696 238.20382,456.19597 C 217.47586,447.12636 219.73211,449.69267 213.3446,457.32134 C 206.48606,468.74194 209.24212,483.25912 212.30652,495.53876 L 201.69348,500.94637 z " />
    <path
       style="fill:#000000;fill-opacity:1;fill-rule:nonzero;stroke:none;stroke-width:1px;stroke-linecap:butt;stroke-linejoin:miter;stroke-opacity:1"
       id="path1331"
       d="M 309.19257,510.37309 C 311.65511,513.29854 313.74311,516.44788 315.56164,519.77823 C 317.25289,528.52738 303.90074,532.57421 297.00147,532.1978 L 306.71327,525.58766 C 320.43025,523.76453 301.83195,532.71593 305.29758,525.46661 C 303.58543,522.2759 301.61417,519.20683 299.04666,516.59051 L 309.19257,510.37309 z " />
    <path
       style="fill:#000000;fill-opacity:1;fill-rule:nonzero;stroke:none;stroke-width:1px;stroke-linecap:butt;stroke-linejoin:miter;stroke-opacity:1"
       id="path1339"
       d="M 264.93784,505.86154 C 276.81575,498.83452 253.75138,514.94176 265.87661,503.4293 L 276.65392,499.12309 C 270.26932,504.72542 263.83015,510.78093 255.3014,512.86282 L 264.93784,505.86154 z " />
    <path
       style="fill:#000000;fill-opacity:1;fill-rule:nonzero;stroke:none;stroke-width:1px;stroke-linecap:butt;stroke-linejoin:miter;stroke-opacity:1"
       id="path1341"
       d="M 270.69348,518.94637 C 272.72241,514.70649 277.7095,512.35314 281.26554,509.14742 C 281.58329,508.84701 281.90104,508.54661 282.21879,508.2462 L 292.9847,503.84944 C 292.6622,504.12854 292.33971,504.40764 292.01721,504.68675 C 288.73464,507.96994 284.50224,510.50643 281.30652,513.53876 L 270.69348,518.94637 z " />
    <path
       style="fill:#000000;fill-opacity:1;fill-rule:nonzero;stroke:none;stroke-width:1px;stroke-linecap:butt;stroke-linejoin:miter;stroke-opacity:1"
       id="path1343"
       d="M 274.93784,501.86154 C 277.2057,502.3375 279.00496,503.75113 280.86845,505.0209 L 270.91639,511.22505 C 269.14795,510.14102 267.49856,508.80429 265.3014,508.86282 L 274.93784,501.86154 z " />
    <path
       style="fill:#000000;fill-opacity:1;fill-rule:nonzero;stroke:none;stroke-width:1px;stroke-linecap:butt;stroke-linejoin:miter;stroke-opacity:1"
       id="path1345"
       d="M 266.69348,502.94637 C 266.74476,502.24836 266.73661,501.54785 266.75817,500.84879 L 277.24183,495.5071 C 277.26339,496.18417 277.2542,496.86283 277.30652,497.53876 L 266.69348,502.94637 z " />
    <path
       style="fill:#000000;fill-opacity:1;fill-rule:nonzero;stroke:none;stroke-width:1px;stroke-linecap:butt;stroke-linejoin:miter;stroke-opacity:1"
       id="path1347"
       d="M 374.30652,631.77799 C 378.60307,635.61196 384.62759,639.9326 390.09218,643.14595 C 391.60603,644.14519 393.24264,644.87333 394.87181,645.65014 L 385.1197,652.09865 C 383.49124,651.26605 381.82869,650.50919 380.3272,649.444 C 374.49287,645.83451 368.77633,641.72028 363.69348,637.18561 L 374.30652,631.77799 z " />
  </g>
</svg>
